<?xml version="1.0" standalone="no"?>
<!DOCTYPE svg PUBLIC "-//W3C//DTD SVG 20010904//EN"
 "http://www.w3.org/TR/2001/REC-SVG-20010904/DTD/svg10.dtd">
<svg version="1.0" xmlns="http://www.w3.org/2000/svg"
 width="198.000000pt" height="254.000000pt" viewBox="0 0 198.000000 254.000000"
 preserveAspectRatio="xMidYMid meet">

<g transform="translate(0.000000,254.000000) scale(0.100000,-0.100000)"
fill="#000000" stroke="none">
<path d="M945 2534 c-11 -3 -215 -117 -454 -252 -374 -213 -437 -252 -460
-286 l-26 -40 0 -526 0 -526 26 -40 c23 -34 115 -90 729 -444 387 -223 707
-406 711 -408 5 -2 10 123 11 278 l3 282 215 124 c118 69 225 136 237 151 12
15 26 46 32 69 15 59 15 985 0 1038 -6 22 -23 51 -37 65 -15 15 -218 135 -452
269 -433 246 -468 263 -535 246z m-168 -580 c50 -24 84 -74 92 -135 l6 -51
198 -114 197 -113 35 20 c72 43 176 18 223 -53 81 -123 -36 -291 -183 -264
-73 14 -148 115 -132 177 4 15 -32 40 -198 135 -194 110 -204 115 -227 101
-40 -26 -94 -31 -142 -13 -51 20 -79 47 -101 100 -58 137 95 274 232 210z
m355 -691 l26 -48 -146 -82 c-108 -61 -146 -88 -144 -100 8 -36 -21 -103 -59
-137 -110 -100 -279 -25 -279 124 0 122 122 201 234 151 l47 -20 137 79 c75
43 142 79 147 79 6 1 22 -20 37 -46z"/>
</g>
</svg>
