<?xml version="1.0" standalone="no"?>
<!DOCTYPE svg PUBLIC "-//W3C//DTD SVG 20010904//EN"
 "http://www.w3.org/TR/2001/REC-SVG-20010904/DTD/svg10.dtd">
<svg version="1.0" xmlns="http://www.w3.org/2000/svg"
 width="225.000000pt" height="225.000000pt" viewBox="0 0 225.000000 225.000000"
 preserveAspectRatio="xMidYMid meet">

<g transform="translate(0.000000,225.000000) scale(0.100000,-0.100000)"
fill="#000000" stroke="none">
<path d="M1042 2204 c-70 -36 -117 -120 -110 -199 l3 -35 -224 -129 -224 -129
-40 26 c-56 37 -156 39 -209 3 -81 -56 -109 -155 -70 -243 20 -45 67 -90 110
-103 l22 -6 0 -264 0 -264 -22 -6 c-41 -13 -90 -57 -109 -99 -37 -81 -20 -167
44 -223 69 -60 162 -69 236 -20 l38 25 224 -129 224 -130 -3 -34 c-7 -81 46
-173 115 -201 41 -18 115 -18 156 0 72 29 125 127 112 205 l-6 36 223 128
c199 115 225 127 243 116 83 -53 141 -62 210 -30 103 48 143 154 96 257 -19
42 -68 86 -108 99 l-23 6 0 264 0 264 23 6 c70 22 126 103 127 183 1 152 -171
244 -298 159 l-39 -26 -224 129 -223 129 -1 58 c-1 69 -22 111 -78 156 -31 26
-48 32 -100 34 -43 3 -72 -1 -95 -13z m-343 -824 c-160 -278 -295 -509 -300
-515 -5 -5 -9 96 -9 258 l0 267 33 14 c39 16 82 61 96 99 6 16 11 52 11 80 l0
52 228 132 c125 72 228 128 230 124 1 -4 -129 -234 -289 -511z m839 360 l182
-105 0 -52 c0 -28 5 -64 11 -80 14 -38 57 -83 97 -99 l32 -14 0 -267 c0 -162
-4 -263 -9 -258 -14 15 -591 1017 -591 1027 0 5 22 -4 48 -19 26 -16 130 -75
230 -133z m-179 -203 c429 -744 415 -718 403 -736 -7 -9 -19 -31 -27 -48 l-15
-33 -595 0 -595 0 -15 33 c-8 17 -20 39 -27 48 -10 14 5 45 88 190 55 96 188
326 295 511 l194 338 60 0 60 0 174 -303z m359 -919 c-3 -7 -105 -71 -227
-142 l-222 -128 -22 20 c-60 56 -183 57 -242 2 -20 -18 -25 -15 -247 113 -126
73 -228 135 -228 139 0 5 268 8 596 8 472 0 595 -3 592 -12z"/>
</g>
</svg>
